<svg width="664" height="683" viewBox="0 0 664 683" fill="none" xmlns="http://www.w3.org/2000/svg">
<path d="M206.467 2.26667C186.733 6.40001 169 16.5333 154.867 31.7333C144.333 43.0667 138.6 52.5333 133.267 67.6C129.4 78.4 129.133 80.6667 129 97.3333C129 120.533 132.067 132.267 143.667 152L147.267 158L139 170.4C114.467 207.467 96.7333 253.333 90.0667 297.333C87 318 87 355.467 90.2 375.333C95.1333 406.667 104.067 434.4 118.2 462.267L126.467 478.533L122.2 484.4C119.533 488.133 97.2667 506.8 62.7333 534.4C21.1333 567.6 6.86666 579.733 4.59999 583.733C0.333323 591.467 -0.466677 600.533 2.33332 610.133C4.46666 617.733 5.66666 619.067 34.7333 648.267C63.9333 677.333 65.2667 678.533 72.8667 680.667C82.4667 683.467 91.5333 682.667 99.4 678.4C103.8 676 115 662.8 149.4 620C175.267 587.733 196.067 562.933 199.4 560.533L205 556.4L217.667 562.4C235.667 570.8 262.6 579.333 283.933 583.6C300.6 586.8 305.267 587.2 334.333 587.2C369.4 587.333 381.667 585.867 411.4 578.4C511.8 553.2 598.067 478.533 639.4 381.333C649.933 356.533 656.333 333.867 661.133 304.667C664.467 284.8 664.467 239.867 661.267 220.667C656.2 191.733 648.333 167.467 636.067 143.6C626.733 125.333 623 121.333 615.667 121.333C611.4 121.333 609.267 122.133 606.6 124.667C600.467 130.8 600.867 133.6 610.867 153.333C621.667 174.533 626.867 188.533 631.533 209.467C649.8 290.933 623.8 383.067 562.333 454.4C535.267 485.867 497.8 514.667 461.8 531.733L449.4 537.6L420.467 509.2C404.6 493.467 334.6 423.733 264.733 354.133L137.933 227.6L143.933 215.6C148.6 206.133 160.2 186.4 165.8 178.267C166.333 177.467 168.467 178.267 170.733 179.867C177.133 184.4 193.533 191.733 203 194.267C216.333 197.867 240.733 197.467 253.667 193.467C268.733 188.8 283.133 180.8 293.667 171.067C315.8 150.533 327 123.067 325.267 93.3333C324.6 82.4 321.667 68.9333 318.333 61.0667C317.133 58 322.6 55.7333 345 50C371.4 43.2 388.333 41.0667 415 40.9333C443.8 40.9333 464.6 44.1333 491.4 52.8L509.8 58.8L514.733 56.4C518.067 54.6667 520.2 52.5333 521.4 49.0667C523.133 44.6667 523 43.6 520.867 39.0667C518.6 34.5333 517.133 33.6 506.733 29.7333C477.133 18.6667 451 14.2667 415 14.2667C379 14.2667 352.333 18.5333 317.267 30.1333L302.867 34.9333L295.133 27.6C271.267 4.80001 238.2 -4.66666 206.467 2.26667ZM241.8 28.5333C273.133 35.2 296.467 62.4 298.6 94.6667C301 130.667 273.8 163.867 237.267 169.6C204.067 174.667 169.8 153.733 158.733 121.6C154.733 109.867 154.467 88.4 158.2 77.3333C163 62.9333 172.2 50 183.133 41.8667C201.133 28.6667 221 24.1333 241.8 28.5333ZM274.867 401.867C355 482 420.067 548 419.533 548.4C416.867 550 389.8 556.133 375.933 558.267C357.533 561.067 318.2 561.467 301 558.8C278.2 555.467 254.467 549.067 237.133 541.467L230.733 538.667L233.8 536.267C235.533 534.933 243.933 528.933 252.6 522.933C261.133 516.933 269.933 509.867 272.2 507.333C279 499.467 280.6 489.733 276.867 477.2C274.867 470.533 272.6 467.867 245.4 440.4C211.533 406.267 209.133 404.8 193 405.6C179.667 406.267 176.467 408.8 159.533 432.4C151.667 443.2 144.867 452.267 144.333 452.667C143.267 453.333 132.733 431.2 128.6 419.333C113.667 376.533 110.467 332.267 119 287.6C122.067 271.733 126.6 256 128.067 256C128.6 256 194.6 321.6 274.867 401.867ZM225.933 458.4C243.267 475.6 252.333 485.733 252.333 487.467C252.333 489.6 243.133 496.8 213.8 517.467L175.4 544.667L132.467 598.133C108.867 627.6 88.4667 652.667 87.1333 653.867C85.5333 655.333 83.5333 655.867 82.0667 655.467C80.7333 654.933 67.8 643.067 53.2667 628.933C34.3333 610.533 27 602.533 27 600.267C27 597.867 38.7333 587.867 82.3333 553.067L137.667 508.933L165.133 470.533C189.133 436.8 193 432 196.067 432C198.867 432 205.133 437.467 225.933 458.4Z" fill="#FF6F00"/>
<path d="M561.4 68.8C556.867 71.2 555 74.5333 555 80C555 85.6 557 88.9333 561.667 91.3333C567.8 94.5333 573.267 93.8667 577.8 89.4667C588.733 78.4 575.133 61.2 561.4 68.8Z" fill="#FF6F00"/>
</svg>
