<svg width="250" height="355" viewBox="0 0 250 355" fill="none" xmlns="http://www.w3.org/2000/svg">
<path d="M157.87 127.042C150.961 131.814 143.59 136.047 137.241 141.476C125.216 151.759 113.125 162.107 102.245 173.553C84.9964 191.699 70.4051 211.99 60.1134 234.955C52.7301 251.43 47.429 268.534 45.8118 286.783C44.7416 298.86 44.4231 310.657 48.0227 322.311C51.1046 332.289 55.8277 341.161 64.6992 347.393C67.3807 349.276 69.4685 352.005 71.9141 354.673C71.25 355 70.5 355 69.2567 354.661C52.9004 346.913 39.2794 336.62 27.7696 323.362C16.615 310.514 8.54811 296.085 4.03801 279.712C2.43149 273.879 1.33131 267.908 0 262C0 254.312 0 246.625 0.385723 238.282C1.17907 233.712 1.53255 229.791 2.00361 225.885C4.15991 208.003 9.62117 191.026 17.1294 174.793C29.1052 148.902 45.7751 126.057 65.8414 105.973C78.9494 92.8539 93.1909 80.7767 107.611 69.0779C130.913 50.173 156.581 34.7447 183.234 21.0903C198.171 13.4382 213.724 6.99041 229 1.01328e-06C229.444 1.01328e-06 229.889 1e-06 230.667 0C230.885 0.936849 230.77 1.8737 230.044 3.13962C229.301 4.33476 229.169 5.20082 229.038 6.06689C229.038 6.06689 229.01 6.00263 228.682 5.97938C224.298 12.7116 220.145 19.4111 216.205 26.2332C205.053 45.5434 194.031 64.9286 182.874 84.2363C174.607 98.5436 166.21 112.776 157.87 127.042Z" fill="#BFB9B3"/>
<path d="M157.928 127.459C166.21 112.776 174.607 98.5436 182.874 84.2363C194.031 64.9286 205.053 45.5434 216.205 26.2332C220.145 19.4111 224.298 12.7116 228.714 5.99243C226.363 14.7933 223.592 23.5398 220.955 32.3267C217.26 44.6407 214.345 57.1003 213.971 70.0462C213.805 75.8043 212.99 81.5581 213.066 87.306C213.276 103.351 215.022 119.346 219.516 134.695C226.889 159.879 235.468 184.708 243.289 209.764C248.268 225.714 250.285 242.249 248.818 258.8C246.636 283.421 237.594 305.371 221.298 324.445C209.873 337.819 195.409 346.426 180.108 354.655C179.25 355 178.5 355 177.375 355C181.974 349.523 187.504 344.445 191.788 338.473C197.778 330.125 200.538 320.397 202.114 310.166C205.008 291.371 199.902 274.18 193.052 257.123C182.615 231.132 168.704 206.617 160.757 179.549C156.06 163.551 154.811 147.505 157.051 131.09C157.2 129.997 157.666 128.947 157.928 127.459Z" fill="#58514A"/>
</svg>
